<mxfile host="app.diagrams.net" modified="2023-01-17T00:14:58.819Z" agent="5.0 (Windows)" version="20.8.3" etag="kvazm62Hxgrd56r2fOwQ" type="github">
  <diagram id="TEpik_Hg7p2CpYoUs3-W" name="PÃ¡gina-1">
    <mxGraphModel dx="712" dy="519" grid="1" gridSize="10" guides="1" tooltips="1" connect="1" arrows="1" fold="1" page="1" pageScale="1" pageWidth="827" pageHeight="1169" math="0" shadow="0">
      <root>
        <mxCell id="0" />
        <mxCell id="1" parent="0" />
      </root>
    </mxGraphModel>
  </diagram>
</mxfile>
